
            <svg xmlns="http://www.w3.org/2000/svg" width="500" height="375" viewBox="0 0 500 375" fill="none">
                <link type="favicon" rel="shortcut icon" href="/favicon.png" />    
                <style>
                    .text { font: 400 11px 'Segoe UI', Ubuntu, Sans-Serif; fill: #333333 }
                    .about-text { font: 400 11px 'Segoe UI', Ubuntu, Sans-Serif; fill: #333333 }
                    .about-text-grey { font: 400 11px 'Segoe UI', Ubuntu, Sans-Serif; fill: #848484 }
                    .title {fill: #333333}
                    .line { stroke:#dddddd; stroke-width:1 }
                    
                </style>
                <rect x="0.5" y="0.5" rx="4.5" height="99%" stroke="#E4E2E2" width="99%" fill="#fffefe" stroke-opacity="1" />
                
                
                <g transform="translate(25, 35)">
                    
    <g transform="translate(0, 0)" font-family="Verdana, Microsoft Yahei" text-rendering="geometricPrecision">
        <text x="0" y="0" fill="#e74c3c" font-weight="bold" textLength="91.81620000000001" font-size="18">
            AmaoFox
        </text>
        
    <svg xmlns="http://www.w3.org/2000/svg" x="96.81620000000001" y="-14" width="18" height="18" viewBox="0 0 18 18" fill="#f1c40f" style="margin-bottom: -3px;">
        <path d="M16 8C16 6.84375 15.25 5.84375 14.1875 5.4375C14.6562 4.4375 14.4688 3.1875 13.6562 2.34375C12.8125 1.53125 11.5625 1.34375 10.5625 1.8125C10.1562 0.75 9.15625 0 8 0C6.8125 0 5.8125 0.75 5.40625 1.8125C4.40625 1.34375 3.15625 1.53125 2.34375 2.34375C1.5 3.1875 1.3125 4.4375 1.78125 5.4375C0.71875 5.84375 0 6.84375 0 8C0 9.1875 0.71875 10.1875 1.78125 10.5938C1.3125 11.5938 1.5 12.8438 2.34375 13.6562C3.15625 14.5 4.40625 14.6875 5.40625 14.2188C5.8125 15.2812 6.8125 16 8 16C9.15625 16 10.1562 15.2812 10.5625 14.2188C11.5938 14.6875 12.8125 14.5 13.6562 13.6562C14.4688 12.8438 14.6562 11.5938 14.1875 10.5938C15.25 10.1875 16 9.1875 16 8ZM11.4688 6.625L7.375 10.6875C7.21875 10.8438 7 10.8125 6.875 10.6875L4.5 8.3125C4.375 8.1875 4.375 7.96875 4.5 7.8125L5.3125 7C5.46875 6.875 5.6875 6.875 5.8125 7.03125L7.125 8.34375L10.1562 5.34375C10.3125 5.1875 10.5312 5.1875 10.6562 5.34375L11.4688 6.15625C11.5938 6.28125 11.5938 6.5 11.4688 6.625Z">
        </path>
    </svg>
        
        <text x="119.81620000000001" y="0" class="title" font-weight="normal" font-size="18">
            的练习情况
        </text>
        <text x="280" y="0" class="title" font-weight="normal" font-size="13px">
            已通过: 1290题    未通过: 84题
        </text>
    </g>
                </g>

                <g transform="translate(25, 60)">
                    
        <line x1="90" y1="0" x2="90" y2="270"    class="line"/>
        <text x="87" y="280"    class="text">0</text>
        
        <line x1="165" y1="0" x2="165" y2="270"    class="line"/>
        <text x="160" y="280"    class="text">150</text>
        
        <line x1="240" y1="0" x2="240" y2="270"    class="line"/>
        <text x="235" y="280"    class="text">300</text>
        
        <line x1="315" y1="0" x2="315" y2="270"    class="line"/>
        <text x="310" y="280"    class="text">450</text>
        
        <line x1="390" y1="0" x2="390" y2="270"    class="line"/>
        <text x="385" y="280"    class="text">600</text>
        
        <g transform="translate(0, 0)">
            <text x="0" y="15" class="text">未评定</text>
            <text x="100.49916805324459" y="15" class="text">0题</text>
            <rect height="11" fill="#bfbfbf" rx="5" ry="5" x="90" y="5" width="0.49916805324459235"></rect>
        </g>
        
        <g transform="translate(0, 30)">
            <text x="0" y="15" class="text">入门</text>
            <text x="363.56073211314475" y="15" class="text">527题</text>
            <rect height="11" fill="#fe4c61" rx="5" ry="5" x="90" y="5" width="263.56073211314475"></rect>
        </g>
        
        <g transform="translate(0, 60)">
            <text x="0" y="15" class="text">普及-</text>
            <text x="194.84193011647255" y="15" class="text">189题</text>
            <rect height="11" fill="#f39c11" rx="5" ry="5" x="90" y="5" width="94.84193011647254"></rect>
        </g>
        
        <g transform="translate(0, 90)">
            <text x="0" y="15" class="text">普及/提高-</text>
            <text x="154.40931780366057" y="15" class="text">108题</text>
            <rect height="11" fill="#ffc116" rx="5" ry="5" x="90" y="5" width="54.40931780366057"></rect>
        </g>
        
        <g transform="translate(0, 120)">
            <text x="0" y="15" class="text">普及+/提高</text>
            <text x="161.39767054908486" y="15" class="text">122题</text>
            <rect height="11" fill="#52c41a" rx="5" ry="5" x="90" y="5" width="61.397670549084864"></rect>
        </g>
        
        <g transform="translate(0, 150)">
            <text x="0" y="15" class="text">提高+/省选-</text>
            <text x="162.89517470881864" y="15" class="text">125题</text>
            <rect height="11" fill="#3498db" rx="5" ry="5" x="90" y="5" width="62.89517470881864"></rect>
        </g>
        
        <g transform="translate(0, 180)">
            <text x="0" y="15" class="text">省选/NOI-</text>
            <text x="191.846921797005" y="15" class="text">183题</text>
            <rect height="11" fill="#9d3dcf" rx="5" ry="5" x="90" y="5" width="91.846921797005"></rect>
        </g>
        
        <g transform="translate(0, 210)">
            <text x="0" y="15" class="text">NOI/NOI+/CTSC</text>
            <text x="118.46921797004993" y="15" class="text">36题</text>
            <rect height="11" fill="#0e1d69" rx="5" ry="5" x="90" y="5" width="18.469217970049918"></rect>
        </g>
        
        <g transform="translate(0, 240)">
            <text x="0" y="15" class="text">尝试过的题目</text>
            <text x="142.42928452579037" y="15" class="text">84题</text>
            <rect height="11" fill="#0101DF" rx="5" ry="5" x="90" y="5" width="42.42928452579035"></rect>
        </g>
        
                </g>
                <g transform="translate(25, 340)"><text x="0" y="15" class="about-text-grey">数据由用户自行填入，请注意鉴别</text></g>
            </svg>